<?xml version="1.0" standalone="no"?>
<!DOCTYPE svg PUBLIC "-//W3C//DTD SVG 1.1//EN" "http://www.w3.org/Graphics/SVG/1.1/DTD/svg11.dtd" >
<svg>
<metadata>
Created by FontForge 20090914 at Wed Jul  9 15:41:43 2014
 By www-data
1.0 &#194;&#169;1995 B.O.Nelson&#226;&#128;&#144;Brain Eaters Font Co.
</metadata>
<defs>
<font id="RayGun" horiz-adv-x="485" >
  <font-face 
    font-family="RayGun"
    font-weight="400"
    font-stretch="normal"
    units-per-em="1000"
    panose-1="0 0 4 0 0 0 0 0 0 0"
    ascent="800"
    descent="-200"
    x-height="455"
    cap-height="672.999"
    bbox="-13.002 -191 1087 800"
    underline-thickness="20"
    underline-position="-123"
    unicode-range="U+0020-U+2122"
  />
<missing-glyph horiz-adv-x="500" 
d="M63 0v800h375v-800h-375zM125 63h250v675h-250v-675z" />
    <glyph glyph-name=".notdef" horiz-adv-x="500" 
d="M63 0v800h375v-800h-375zM125 63h250v675h-250v-675z" />
    <glyph glyph-name="space" unicode=" " horiz-adv-x="334" 
 />
    <glyph glyph-name="exclam" unicode="!" horiz-adv-x="293" 
d="M146 203c-20.667 0 -34.667 12 -42 36c-3.33301 10 -6 30.667 -8 62l-20 298c0 22 6.33301 40.5 19 55.5s29.667 22.5 51 22.5c23.333 0 41 -8.16699 53 -24.5s17.667 -36.5 17 -60.5v-9l-12 -279c-1.33301 -31.333 -4.33301 -53.333 -9 -66
c-8.66699 -23.333 -25 -35 -49 -35zM148 149c21.333 0 39.833 -7.83398 55.5 -23.501s23.5 -34.167 23.5 -55.5c0 -14 -10 -30.833 -30 -50.5s-37 -29.5 -51 -29.5s-30.833 9.5 -50.5 28.5s-29.5 35.5 -29.5 49.5c0 22.667 8 41.834 24 57.501s35.333 23.5 58 23.5z" />
    <glyph glyph-name="quotedbl" unicode="&#x22;" horiz-adv-x="333" 
d="M11 612c0 17.333 7.99902 30.667 23.999 40c13.333 8 29.333 12 48 12c44 0 66 -16.333 66 -49c0 -21.333 -7.66699 -57 -23 -107c-16.667 -56.667 -32 -85 -46 -85c-13.333 0 -28.666 28 -45.999 84c-15.333 50 -23 85 -23 105zM183.999 612.001
c0 17.333 8.66699 30.667 26 40c14 8 30.333 12 49 12c42 0 63 -16.333 63 -49c0 -21.333 -7.66699 -57 -23 -107c-16.667 -56.667 -32 -85 -46 -85c-15.333 0 -31 27.667 -47 83c-14.667 48.667 -22 84 -22 106z" />
    <glyph glyph-name="numbersign" unicode="#" horiz-adv-x="493" 
d="M369 400h-46.001l-12 -98h47c2.66699 -11.333 4 -21.333 4 -30c0 -14 -5 -30.333 -15 -49h-46l-15 -119h-55l15 119h-35l-16 -119c-10.667 -3.33301 -19.667 -5 -27 -5c-8.66699 0 -18 1.66699 -28 5l15 119h-42l11 79h41l12 98h-42c-2 8.66699 -3 17.667 -3 27
c0 19.333 4.66699 36.333 14 51h41l14 112h56l-14 -112h35l14 112c8.66699 3.33301 18.334 5 29.001 5c10 0 19 -1.66699 27 -5l-15 -112h47zM231.999 400l-12 -98h36l12 98h-36z" />
    <glyph glyph-name="dollar" unicode="$" horiz-adv-x="548" 
d="M194 492c0 -26 27.667 -46.665 83 -61.998c80 -22.667 131.333 -41.334 154 -56.001c56 -34.667 84 -88 84 -160c0 -110.667 -60 -178.667 -180 -204c-4.66699 -68 -26 -102 -64 -102c-38.667 0 -58 35.667 -58 107l-107 18c-48.667 12 -73 31.667 -73 59
s21.667 41 65 41c17.333 0 43 -4.33301 77 -13s59.333 -13 76 -13c35.333 0 64 9.83301 86 29.5s33 46.5 33 80.5c0 27.333 -28.667 49 -86 65c-85.333 24.667 -138 42.667 -158 54c-56.667 32.667 -85 82 -85 148c0 54.667 15.667 97 47 127
c22 20.667 62.667 42.667 122 66c0.666992 28 3.33398 47 8.00098 57c8 16 24.333 24 49 24c20.667 0 35 -8.33301 43 -25c4.66699 -10 7.66699 -27.333 9 -52c107.333 -20.667 161 -51.334 161 -92.001c0 -24 -14.333 -36 -43 -36c-16.667 0 -40.667 6.16699 -72 18.5
s-55.333 18.5 -72 18.5c-34.667 0 -59.834 -7.66699 -75.501 -23s-23.5 -40.333 -23.5 -75z" />
    <glyph glyph-name="percent" unicode="%" horiz-adv-x="754" 
d="M521 674c12 0 24.333 -3.66895 37 -11.002s19 -16.666 19 -27.999c0 -14 -5.33301 -31.667 -16 -53l-265 -529c-10.667 -21.333 -18 -34.666 -22 -39.999c-10.667 -14.667 -22.667 -22 -36 -22c-17.333 0 -26 10 -26 30c0 10 6 29 18 57l229 534
c18 41.333 38.667 62 62 62zM553 298.998c42 0 78.167 -14.833 108.5 -44.5s45.5 -65.5 45.5 -107.5s-15 -78 -45 -108s-66 -45 -108 -45s-78 15 -108 45s-45 66 -45 108c0 41.333 15 77 45 107s65.667 45 107 45zM199 672.998c42 0 78 -14.833 108 -44.5
s45 -65.5 45 -107.5s-14.833 -78 -44.5 -108s-65.5 -45 -107.5 -45s-78 14.833 -108 44.5s-45 65.5 -45 107.5s15 78 45 108s65.667 45 107 45zM553 237.998c-16 0 -30.666 -11.333 -43.999 -34c-11.333 -20 -17 -38.667 -17 -56c0 -18.667 6 -38 18 -58
c13.333 -22.667 28.666 -34 45.999 -34c16.667 0 31 11.333 43 34c10.667 20 16 39 16 57s-5.66699 37 -17 57c-13.333 22.667 -28.333 34 -45 34zM200.001 609.998c-16.667 0 -31.333 -10.999 -44 -32.999c-12 -19.333 -18 -38 -18 -56
c0 -18.667 5.66699 -38.334 17 -59.001c13.333 -24 28.333 -36 45 -36s31.334 12 44.001 36c10.667 20.667 16 40 16 58s-5.33301 36.667 -16 56c-12.667 22.667 -27.334 34 -44.001 34z" />
    <glyph glyph-name="ampersand" unicode="&#x26;" horiz-adv-x="606" 
d="M415 198c20.667 80.667 56.001 121.003 106.001 121.003c21.333 0 32 -17.667 32 -53c0 -34.667 -15.667 -87.667 -47 -159c24.667 -23.333 38.334 -36.666 41.001 -39.999c15.333 -18 23 -34.667 23 -50l-5 -15c-7.33301 -7.33301 -16.333 -11 -27 -11
c-28.667 0 -58.667 16.667 -90 50c-45.333 -38 -99.666 -57 -162.999 -57c-68.667 0 -127.334 23 -176.001 69s-73 103 -73 171c0 68.667 27.333 123.667 82 165c-25.333 31.333 -38 66.666 -38 105.999c0 51.333 22 95.666 66 132.999c42 36 89 54 141 54
c36 0 76 -12.667 120 -38c49.333 -28.667 74 -59.334 74 -92.001c0 -28 -18 -42 -54 -42c-14.667 0 -36.834 14.5 -66.501 43.5s-54.167 43.5 -73.5 43.5c-20.667 0 -37.834 -8.83301 -51.501 -26.5s-20.5 -36.834 -20.5 -57.501c0 -19.333 3 -35.333 9 -48
c2 -4 11 -17 27 -39zM205.001 293.003c-32 -31.333 -48.001 -61.667 -48.001 -91c0 -30 11.333 -55 34 -75s49.334 -30 80.001 -30c21.333 0 49 13.667 83 41z" />
    <glyph glyph-name="quotesingle" unicode="'" horiz-adv-x="181" 
d="M22 612c0 30.667 23.666 46 70.999 46c44.667 0 67 -14.333 67 -43c0 -18.667 -8.33301 -54 -25 -106c-17.333 -57.333 -31.666 -86 -42.999 -86c-14 0 -29.667 28 -47 84c-15.333 50 -23 85 -23 105z" />
    <glyph glyph-name="parenleft" unicode="(" horiz-adv-x="446" 
d="M43 343c0 79.333 20.499 155.834 61.499 229.501s95.167 131.5 162.5 173.5c26.667 16.667 49 25 67 25c18.667 0 34.834 -7.16699 48.501 -21.5s20.5 -30.833 20.5 -49.5s-19 -43.334 -57 -74.001c-50 -40 -84.667 -74.333 -104 -103c-38 -53.333 -57 -118 -57 -194
c0 -73.333 14.333 -139.333 43 -198c18 -37.333 44.667 -75.333 80 -114c28.667 -32 43 -52 43 -60c0 -30.667 -17.333 -46 -52 -46c-18 0 -39.333 9.33301 -64 28c-128 98 -192 232.667 -192 404z" />
    <glyph glyph-name="parenright" unicode=")" horiz-adv-x="446" 
d="M403 347c0 79.333 -20.499 155.834 -61.499 229.501s-95.167 131.5 -162.5 173.5c-26.667 16.667 -49 25 -67 25c-18.667 0 -34.834 -7.16699 -48.501 -21.5s-20.5 -30.833 -20.5 -49.5s19 -43.334 57 -74.001c50 -40 84.667 -74.333 104 -103
c38 -53.333 57 -118 57 -194c0 -73.333 -14.333 -139.333 -43 -198c-18 -37.333 -44.667 -75.333 -80 -114c-28.667 -32 -43 -52 -43 -60c0 -30.667 17.333 -46 52 -46c18 0 39.333 9.33301 64 28c128 98 192 232.667 192 404z" />
    <glyph glyph-name="asterisk" unicode="*" horiz-adv-x="428" 
d="M269 491l31.998 -42.998c13.333 -18.667 20 -34.334 20 -47.001c0 -22.667 -9.33301 -34 -28 -34c-19.333 0 -35.666 11.333 -48.999 34l-27 58l-32 -57c-16 -23.333 -32.667 -35 -50 -35c-20 0 -30 12.333 -30 37c0 10 6.33301 25.667 19 47l30 46l-63 10
c-25.333 7.33301 -38 21.666 -38 42.999c0 18 13.667 27 41 27c12 0 26.667 -2.66699 44 -8c14 -5.33301 28 -10.333 42 -15c0 -5.33301 0 8.66699 0 42c0 54 11.333 81 34 81c19.333 0 31 -16 35 -48v-70v-5l44.5 17c15.667 6 29.834 9 42.501 9c26 0 39 -10 39 -30
s-13.667 -34.667 -41 -44c-21.333 -5.33301 -43 -10.333 -65 -15z" />
    <glyph glyph-name="plus" unicode="+" horiz-adv-x="484" 
d="M272 258l0.000976562 -145c-8.66699 -4 -18.334 -6 -29.001 -6s-20.667 2 -30 6v145h-123v64h123v146c8 4 17 6 27 6c11.333 0 22 -2 32 -6v-146h122v-64h-122z" />
    <glyph glyph-name="comma" unicode="," horiz-adv-x="281" 
d="M114 -10c-12 5.33301 -25.168 17.667 -39.501 37s-21.5 35 -21.5 47c0 23.333 8.83301 43.666 26.5 60.999s38.167 26 61.5 26c20.667 0 40.334 -11.167 59.001 -33.5s28 -43.833 28 -64.5c0 -124.667 -44.667 -187 -134 -187l-6 5c0 8 5.66699 20.333 17 37
s17 29.334 17 38.001c0 6 -2.66699 17.333 -8 34z" />
    <glyph glyph-name="hyphen" unicode="-" horiz-adv-x="367" 
d="M148 198c-22.667 0 -41 5.33301 -55 16c-16.667 12 -25 28.667 -25 50c0 20.667 7.16699 37 21.5 49s31.833 18 52.5 18h84c20.667 0 38.167 -6 52.5 -18s21.5 -28 21.5 -48c0 -20.667 -7.16699 -37 -21.5 -49s-31.833 -18 -52.5 -18h-78z" />
    <glyph glyph-name="hyphen" unicode="&#x2010;" horiz-adv-x="367" 
d="M148 198c-22.667 0 -41 5.33301 -55 16c-16.667 12 -25 28.667 -25 50c0 20.667 7.16699 37 21.5 49s31.833 18 52.5 18h84c20.667 0 38.167 -6 52.5 -18s21.5 -28 21.5 -48c0 -20.667 -7.16699 -37 -21.5 -49s-31.833 -18 -52.5 -18h-78z" />
    <glyph glyph-name="period" unicode="." horiz-adv-x="224" 
d="M114 149c21.333 0 39.833 -7.83398 55.5 -23.501s23.5 -34.167 23.5 -55.5c0 -14 -10 -30.833 -30 -50.5s-37 -29.5 -51 -29.5s-30.833 9.5 -50.5 28.5s-29.5 35.5 -29.5 49.5c0 22.667 8 41.834 24 57.501s35.333 23.5 58 23.5z" />
    <glyph glyph-name="slash" unicode="/" horiz-adv-x="343" 
d="M243 786c17.333 0 34.9971 -7.83496 52.9971 -23.502s27 -32.167 27 -49.5c0 -26.667 -29.667 -148 -89 -364l-110 -393c-12 -44.667 -34 -67 -66 -67c-11.333 0 -20.666 6.33301 -27.999 19c-6.66699 10.667 -10 22 -10 34c0 4.66699 1.33301 10.834 4 18.501
s4.33398 12.834 5.00098 15.501l149 743c8.66699 44.667 30.334 67 65.001 67z" />
    <glyph glyph-name="zero" unicode="0" horiz-adv-x="590" 
d="M290 685c93.333 0 164 -34.667 212 -104c42 -60 63 -138.667 63 -236s-20.667 -177 -62 -239c-48 -72 -118.333 -108 -211 -108s-162 34.333 -208 103c-38.667 58 -58 135.667 -58 233s19 177 57 239c46.667 74.667 115.667 112 207 112zM290 533
c-50.667 0 -89.667 -21 -117 -63c-22.667 -36 -34 -80.667 -34 -134c0 -56.667 11 -104.667 33 -144c26.667 -48 66.334 -72 119.001 -72c53.333 0 94.666 25.333 123.999 76c24 42 36 91.667 36 149c0 53.333 -13.333 97 -40 131c-28.667 38 -69 57 -121 57z" />
    <glyph glyph-name="one" unicode="1" horiz-adv-x="309" 
d="M97 527c-41.333 0 -62.001 17 -62.001 51c0 23.333 23.333 45.333 70 66c40 17.333 74.333 26 103 26c20.667 0 37 -9 49 -27s17.667 -37.667 17 -59l-1 -20l-41 -478c-5.33301 -62 -21.666 -93 -48.999 -93c-26.667 0 -44.667 11.333 -54 34c-6 15.333 -9 38.333 -9 69
l-1 389c0 17.333 -7.33301 31.333 -22 42z" />
    <glyph glyph-name="two" unicode="2" horiz-adv-x="538" 
d="M243 133c32 -2.66699 63.6689 -5.66602 95.002 -8.99902c49.333 -5.33301 87.666 -13.666 114.999 -24.999c36.667 -14.667 55 -35 55 -61c0 -25.333 -27 -38 -81 -38h-289c-25.333 0 -47 5.33301 -65 16c-21.333 12.667 -32 31 -32 55c0 12 26.667 43 80 93
c79.333 75.333 128.666 123.666 147.999 144.999c53.333 58 80 101.667 80 131c0 22 -8.66699 41.333 -26 58s-37 25 -59 25c-30 0 -65.667 -18.167 -107 -54.5s-67 -54.5 -77 -54.5c-34 0 -51 13.667 -51 41c0 50 26.167 99.5 78.5 148.5s103.5 73.5 153.5 73.5
c68 0 123.333 -17 166 -51c46 -36.667 69 -88.334 69 -155.001c0 -68.667 -18 -119.667 -54 -153z" />
    <glyph glyph-name="three" unicode="3" horiz-adv-x="548" 
d="M431 386c60.667 -39.333 91 -92.001 91 -158.001c0 -64.667 -25 -120.5 -75 -167.5s-107.333 -70.5 -172 -70.5c-66.667 0 -123.667 18.667 -171 56c-52 40.667 -78 93.334 -78 158.001c0 48 17.667 72 53 72c23.333 0 41.333 -14.667 54 -44
c20.667 -46.667 34.334 -73.667 41.001 -81c24 -29.333 61 -44 111 -44c23.333 0 44.166 8.5 62.499 25.5s27.5 37.167 27.5 60.5c0 55.333 -12.333 92.666 -37 111.999c-10 8 -33 16 -69 24c-24.667 5.33301 -37 18.333 -37 39c0 22 8.66699 35.333 26 40
c16.667 2 33 4.33301 49 7c18 5.33301 27 20.666 27 45.999c0 22.667 -8 41.834 -24 57.501s-35.333 23.5 -58 23.5c-25.333 0 -49 -12.667 -71 -38s-42 -38 -60 -38c-34 0 -51 17 -51 51c0 42 23 79.667 69 113c42 31.333 85 47 129 47c52 0 99 -17.667 141 -53
c43.333 -37.333 65 -81.666 65 -132.999c0 -38 -14.333 -73 -43 -105z" />
    <glyph glyph-name="four" unicode="4" horiz-adv-x="593" 
d="M354 664l66 0.000976562c30 0 48.333 -7.33301 55 -22c2 -6 3 -27 3 -63v-347h16c48.667 0 73 -16.667 73 -50c0 -30 -29.667 -45 -89 -45c0 -6 0.333008 -15.5 1 -28.5s1 -22.833 1 -29.5c0 -54.667 -19 -82 -57 -82c-20 0 -35 19 -45 57
c-5.33301 27.333 -11 54.666 -17 81.999l-333 1v123l-2 -3c41.333 47.333 96.333 115 165 203zM352 229.001l-27 287l-200 -281z" />
    <glyph glyph-name="five" unicode="5" horiz-adv-x="532" 
d="M411 667c51.333 0 77.002 -14 77.002 -42c0 -24 -36 -43.667 -108 -59c-24 -4.66699 -71.333 -11.334 -142 -20.001l-52 -120c21.333 2 49.666 3 84.999 3c74 0 129.333 -13.667 166 -41c42.667 -31.333 64 -82.666 64 -153.999c0 -68.667 -22.333 -126.5 -67 -173.5
s-101 -70.5 -169 -70.5c-44.667 0 -93.334 16 -146.001 48c-58.667 35.333 -88 73.666 -88 114.999c0 14 5.33301 26.167 16 36.5s22.667 15.5 36 15.5c22.667 0 52 -18.167 88 -54.5s70.667 -54.5 104 -54.5c30 0 56 17 78 51c18.667 30 28 61 28 93
c0 62 -50.333 93 -151 93c-16 0 -37.167 -0.833008 -63.5 -2.5s-43.5 -2.5 -51.5 -2.5c-37.333 0 -56 27.667 -56 83c0 10.667 10.667 51.334 32 122.001l42 133z" />
    <glyph glyph-name="six" unicode="6" horiz-adv-x="536" 
d="M521 234c0 -71.333 -20.002 -129.335 -60.002 -174.002c-42 -46.667 -98.333 -70 -169 -70c-74.667 0 -139 30.667 -193 92c-51.333 59.333 -77 127 -77 203c0 106 28.667 196.333 86 271c62.667 81.333 145.334 122 248.001 122c39.333 0 59 -15.667 59 -47
c0 -16.667 -13 -28.667 -39 -36l-89 -25c-40 -17.333 -72 -44.666 -96 -81.999c-29.333 -45.333 -44 -106.666 -44 -183.999c0 -36 15 -71.333 45 -106c30.667 -36.667 63.667 -55 99 -55c71.333 0 107 27.333 107 82c0 24.667 -12 43 -36 55
c-18.667 9.33301 -41.667 14 -69 14c-7.33301 0 -18.666 -1.5 -33.999 -4.5s-26.666 -4.5 -33.999 -4.5c-31.333 0 -47 12.667 -47 38c0 26 20.667 47.667 62 65c33.333 14 65.666 21 96.999 21c52 0 95.667 -16.333 131 -49s53 -74.667 53 -126z" />
    <glyph glyph-name="seven" unicode="7" horiz-adv-x="471" 
d="M297 529l-201.001 29.999c-55.333 8 -83 28 -83 60c0 20.667 6 34.334 18 41.001c8.66699 4.66699 24 7 46 7h290c60.667 0 91 -25 91 -75c0 -13.333 -30.333 -99 -91 -257l-112 -287c-7.33301 -19.333 -13.666 -31.333 -18.999 -36c-7.33301 -8 -20 -12 -38 -12
c-20 -0 -30 12.333 -30 37c0 5.33301 5.66699 29 17 71z" />
    <glyph glyph-name="eight" unicode="8" horiz-adv-x="484" 
d="M373 383c62.667 -44 94 -92.667 94 -146c0 -69.333 -20.333 -127.333 -61 -174c-42.667 -48.667 -98 -73 -166 -73c-66 0 -120.333 25 -163 75c-40 47.333 -60 104.666 -60 171.999c0 48.667 29.333 96.334 88 143.001c-35.333 48 -53 86 -53 114
c0 53.333 17.833 97.166 53.5 131.499s80.167 51.5 133.5 51.5c54 0 98.667 -17.667 134 -53s53 -79.666 53 -132.999c0 -26.667 -17.667 -62.667 -53 -108zM236 578c-34 0 -51 -27.6689 -51 -83.002c0 -15.333 5 -30.666 15 -45.999c11.333 -17.333 24.333 -26 39 -26
c14 0 25.667 8 35 24s14 31.333 14 46c0 18.667 -4 36.334 -12 53.001c-10 21.333 -23.333 32 -40 32zM242 355.998c-26.667 0 -48.667 -15.333 -66 -46c-15.333 -26 -23 -53.333 -23 -82c0 -34 5.66699 -62.333 17 -85c15.333 -28.667 38.333 -43 69 -43s54 14.333 70 43
c13.333 23.333 20 51.666 20 84.999c0 30.667 -6.66699 58.334 -20 83.001c-16.667 30 -39 45 -67 45z" />
    <glyph glyph-name="nine" unicode="9" horiz-adv-x="536" 
d="M18 428c0 71.333 20.498 129.833 61.498 175.5s96.833 68.5 167.5 68.5c74.667 0 139 -30.667 193 -92c51.333 -59.333 77 -127 77 -203c0 -106 -27.333 -195.333 -82 -268c-60.667 -80 -142 -120 -244 -120c-44.667 0 -67 14 -67 42c0 17.333 13 29.333 39 36
c54 14 83.333 22 88 24c40 16.667 72.333 44.334 97 83.001c29.333 46 44 107.333 44 184c0 36 -15.167 71.833 -45.5 107.5s-63.166 53.5 -98.499 53.5c-71.333 0 -107 -27.333 -107 -82c0 -24.667 12 -43 36 -55c18.667 -9.33301 41.667 -14 69 -14c8 0 20 1.5 36 4.5
s28 4.5 36 4.5c11.333 0 21.333 -3.33301 30 -10s13 -16 13 -28c0 -26.667 -20.667 -48.334 -62 -65.001c-33.333 -14 -65.666 -21 -96.999 -21c-51.333 0 -94.833 16.333 -130.5 49s-53.5 74.667 -53.5 126z" />
    <glyph glyph-name="colon" unicode=":" horiz-adv-x="280" 
d="M141 386c21.333 0 39.833 -7.83398 55.5 -23.501s23.5 -34.167 23.5 -55.5c0 -14 -10 -30.833 -30 -50.5s-37 -29.5 -51 -29.5s-30.833 9.5 -50.5 28.5s-29.5 35.5 -29.5 49.5c0 22.667 8 41.834 24 57.501s35.333 23.5 58 23.5zM142 158.999
c21.333 0 39.833 -7.83398 55.5 -23.501s23.5 -34.167 23.5 -55.5c0 -14 -10 -30.833 -30 -50.5s-37 -29.5 -51 -29.5s-30.833 9.5 -50.5 28.5s-29.5 35.5 -29.5 49.5c0 22.667 8 41.834 24 57.501s35.333 23.5 58 23.5z" />
    <glyph glyph-name="semicolon" unicode=";" horiz-adv-x="281" 
d="M142 379c21.333 0 39.833 -7.83398 55.5 -23.501s23.5 -34.167 23.5 -55.5c0 -14 -10 -30.833 -30 -50.5s-37 -29.5 -51 -29.5s-30.833 9.5 -50.5 28.5s-29.5 35.5 -29.5 49.5c0 22.667 8 41.834 24 57.501s35.333 23.5 58 23.5zM114 -10.001
c-12 5.33301 -25.168 17.667 -39.501 37s-21.5 35 -21.5 47c0 23.333 8.83301 43.666 26.5 60.999s38.167 26 61.5 26c20.667 0 40.334 -11.167 59.001 -33.5s28 -43.833 28 -64.5c0 -124.667 -44.667 -187 -134 -187l-6 5c0 8 5.66699 20.333 17 37s17 29.334 17 38.001
c0 6 -2.66699 17.333 -8 34z" />
    <glyph glyph-name="less" unicode="&#x3c;" 
d="M384 95c-92.667 26.667 -197.002 74.332 -313.002 142.999c-5.33301 7.33301 -8 15.666 -8 24.999c0 20.667 47.333 54.334 142 101.001c81.333 39.333 141.666 64 180.999 74c20.667 -10 30.334 -25 29.001 -45l-1 -10c-85.333 -58.667 -163.333 -98.667 -234 -120
c100 -34 180.667 -72 242 -114v-11c0.666992 -9.33301 -3.16602 -18.666 -11.499 -27.999s-17.166 -14.333 -26.499 -15z" />
    <glyph glyph-name="equal" unicode="=" 
d="M82 272v56h321c2.66699 -8 4 -16.667 4 -26c0 -8.66699 -1.33301 -18.667 -4 -30h-321zM82 179c-2.66699 11.333 -4 21.667 -4 31c0 10 1.33301 18.333 4 25h321v-56h-321z" />
    <glyph glyph-name="greater" unicode="&#x3e;" 
d="M101 95c92.667 26 197.001 73.666 313.001 142.999c5.33301 7.33301 8 15.666 8 24.999c0 20.667 -47.333 54.334 -142 101.001c-80.667 39.333 -141 64 -181 74c-20.667 -10 -30.334 -25 -29.001 -45l1 -10c86 -58.667 164.333 -98.667 235 -120
c-100 -34 -181 -72 -243 -114v-11c0 -9.33301 4 -18.666 12 -27.999s16.667 -14.333 26 -15z" />
    <glyph glyph-name="question" unicode="?" horiz-adv-x="523" 
d="M283 202c-29.333 0 -44.001 7.33398 -44.001 22.001c0 19.333 12.667 36.666 38 51.999c37.333 23.333 60.333 40 69 50c24.667 27.333 37 65.333 37 114c0 29.333 -9.33301 55.666 -28 78.999c-20 26 -44 39 -72 39c-40 0 -74 -12 -102 -36
c-13.333 -12 -30.666 -34.667 -51.999 -68c-16 -24.667 -29.667 -37 -41 -37c-29.333 0 -44 18 -44 54c0 55.333 26 104 78 146c49.333 40 102.333 60 159 60c65.333 0 115.333 -23 150 -69c32 -41.333 48 -95.666 48 -162.999c0 -48 -20.333 -99.667 -61 -155
c-43.333 -58.667 -88.333 -88 -135 -88zM288.999 149.001c21.333 0 39.833 -7.83398 55.5 -23.501s23.5 -34.167 23.5 -55.5c0 -14 -10 -30.833 -30 -50.5s-37 -29.5 -51 -29.5s-30.833 9.5 -50.5 28.5s-29.5 35.5 -29.5 49.5c0 22.667 8 41.834 24 57.501
s35.333 23.5 58 23.5z" />
    <glyph glyph-name="at" unicode="@" horiz-adv-x="600" 
d="M512 403c0 56 -18.5029 100.999 -55.5029 134.999s-83.833 51 -140.5 51c-82 0 -141.333 -22.667 -178 -68c-33.333 -40.667 -50 -103 -50 -187c0 -56 19.333 -105.333 58 -148c40 -44.667 88 -67 144 -67c38 0 79.333 9.33301 124 28c54 22.667 81 50.334 81 83.001
l-10 7l-14 -3c-42.667 -38 -99.334 -57 -170.001 -57c-41.333 0 -74.666 11.833 -99.999 35.5s-38 56.167 -38 97.5c0 72 8 124.667 24 158c23.333 48 67.333 72 132 72c54.667 0 92.667 -16.333 114 -49c16.667 -26 25 -67.667 25 -125c0 -50 -11.667 -75 -35 -75
c-10.667 0 -17.667 3 -21 9l2 68c0.666992 39.333 -5.66602 67.666 -18.999 84.999c-15.333 20.667 -42.333 31 -81 31c-16 0 -32 -2.66699 -48 -8c-22 -6.66699 -33 -16 -33 -28c0 -14.667 7.66699 -22 23 -22c6.66699 0 16.334 2.5 29.001 7.5s22.334 7.5 29.001 7.5
c20.667 0 30.667 -16.333 30 -49l-88 -16c-32 -9.33301 -48 -30.666 -48 -63.999c0 -22 8.33301 -40.667 25 -56s35.667 -23 57 -23c19.333 0 38.333 7 57 21c6.66699 -13.333 17 -20 31 -20c58 0 97.333 13.667 118 41c17.333 23.333 26 66 26 128zM246.997 309.999
c0 28 18.667 42 56 42c26 0 39 -11.667 39 -35c0 -32.667 -16 -49 -48 -49c-12 0 -22.833 4 -32.5 12s-14.5 18 -14.5 30z" />
    <glyph glyph-name="A" unicode="A" horiz-adv-x="628" 
d="M466 144l-304.999 0.000976562l-43 -86c-22 -38.667 -43.333 -58 -64 -58c-24 0 -36 14 -36 42c0 9.33301 2.33301 20 7 32c4.66699 10 9 20 13 30l176 509c8 24 18 39.667 30 47c10 6 27.333 9 52 9c6 0 14.667 0.333008 26 1h23c21.333 0 37.666 -3.33301 48.999 -10
c14.667 -8.66699 26 -25.334 34 -50.001l142 -442l24 -65c10.667 -30.667 16 -51.667 16 -63c0 -28 -12.333 -42 -37 -42c-22.667 0 -44.667 19.333 -66 58zM429.001 231.001l-108 254l-128 -254h236z" />
    <glyph glyph-name="B" unicode="B" horiz-adv-x="577" 
d="M178 0c12 0 18 9.99805 18 29.998l1 496h105c58 0 87 -18.333 87 -55c0 -32.667 -15 -55 -45 -67c-6.66699 -2.66699 -33.667 -7.66699 -81 -15c-29.333 -4.66699 -44 -15 -44 -31c0 -14.667 17 -27.667 51 -39c54 -18.667 86.333 -31 97 -37
c34.667 -19.333 52 -45.666 52 -78.999c0 -35.333 -17 -60 -51 -74l-92 -22c-33.333 -9.33301 -50 -26 -50 -50c0 -38 23.667 -57 71 -57h53c58.667 0 107 18 145 54s57 83.333 57 142c0 68.667 -29.333 122.334 -88 161.001c36.667 30.667 55 72 55 124
c0 61.333 -21 108.333 -63 141c-38 30 -88.333 45 -151 45h-279l69 -568c2.66699 -20.667 11.667 -41.667 27 -63c18 -24 36.667 -36 56 -36z" />
    <glyph glyph-name="C" unicode="C" horiz-adv-x="679" 
d="M28 334c0 94.667 33.668 175.501 101.001 242.501s148.333 100.5 243 100.5c46 0 101 -15 165 -45c72.667 -34 109 -70 109 -108c0 -16 -5.83301 -28.667 -17.5 -38s-25.5 -14 -41.5 -14c-13.333 0 -42.333 8.83301 -87 26.5s-87.667 26.5 -129 26.5
c-52 0 -95.667 -18.833 -131 -56.5s-53 -82.834 -53 -135.501c0 -51.333 23.167 -98.833 69.5 -142.5s95.166 -65.5 146.499 -65.5c34 0 72.5 13.667 115.5 41s70.167 41 81.5 41c34 0 51 -19.333 51 -58c0 -40.667 -37.333 -78.667 -112 -114
c-64 -30 -119.333 -45 -166 -45c-94 0 -175 33.833 -243 101.5s-102 148.5 -102 242.5z" />
    <glyph glyph-name="D" unicode="D" horiz-adv-x="670" 
d="M30 667l251 0.00195312c102 0 186.667 -30 254 -90c70 -62.667 105 -144.334 105 -245.001c0 -110 -40 -194.333 -120 -253c-70.667 -52.667 -163 -79 -277 -79c-10.667 0 -16 6.66699 -16 20c0 24.667 23 43 69 55c65.333 16.667 108 32 128 46
c46 31.333 69 82.666 69 153.999s-20 130 -60 176c-42 48.667 -98.333 73 -169 73h-66l-1 -524c-64 -1.33301 -99.333 29.667 -106 93z" />
    <glyph glyph-name="E" unicode="E" horiz-adv-x="508" 
d="M184 527l-6.99805 -124.003l123 -6c67.333 -7.33301 101 -24.666 101 -51.999c0 -31.333 -32 -51.666 -96 -60.999l-131 -8l-10 -136l222 -32c19.333 -2.66699 38.666 -10.667 57.999 -24c22.667 -15.333 34 -31.666 34 -48.999c0 -23.333 -18.667 -35 -56 -35h-302
c-40.667 -0 -66.334 8.33301 -77.001 25c-8 12 -12 39.333 -12 82v560h399c30.667 0 46 -13.667 46 -41c0 -28.667 -48 -53.667 -144 -75z" />
    <glyph glyph-name="F" unicode="F" horiz-adv-x="489" 
d="M189 273c0 0.666992 0.332031 -8.49805 0.999023 -27.498s1 -37.167 1 -54.5c0 -125.333 -15.667 -188 -47 -188c-24 0 -40.667 11 -50 33c-4.66699 10.667 -8.66699 31.667 -12 63c-25.333 237.333 -46.666 426.666 -63.999 567.999h29h343c32 0 52.667 -1.66699 62 -5
c19.333 -6.66699 29 -23 29 -49c0 -22.667 -10.667 -38.334 -32 -47.001c-8.66699 -4 -29 -8 -61 -12l-202 -27v-130l130 -6c69.333 -8 104 -25.667 104 -53c0 -28 -32.667 -46.667 -98 -56c-6 -0.666992 -50.333 -3.66699 -133 -9z" />
    <glyph glyph-name="G" unicode="G" horiz-adv-x="689" 
d="M654 249v-249c0 -8.66699 -3 -13.667 -9 -15c-18.667 16.667 -45 43.334 -79 80.001c-42.667 -50 -103.667 -75 -183 -75c-94.667 0 -176.167 33.833 -244.5 101.5s-102.5 148.5 -102.5 242.5c0 94.667 33.667 175.5 101 242.5s148.666 100.5 243.999 100.5
c46.667 0 94.334 -10.333 143.001 -31c61.333 -26 92 -59 92 -99c0 -33.333 -22.333 -49.333 -67 -48c-66.667 28 -123.667 42 -171 42c-52 0 -93.667 -23.667 -125 -71c-26.667 -41.333 -40 -89 -40 -143c0 -56.667 16.667 -104 50 -142s78.333 -57 135 -57
c86 0 129 36.667 129 110l-146 101l167 -1c38 0 64.333 -5 79 -15c18 -12.667 27 -37.334 27 -74.001z" />
    <glyph glyph-name="H" unicode="H" horiz-adv-x="652" 
d="M202 409h249l33 180c6 34 9.33301 52.333 10 55c8 20 22 30 42 30c45.333 0 68 -28.667 68 -86v-509c0 -52.667 -20 -79 -60 -79c-26 0 -46.333 19 -61 57c-10.667 27.333 -18.667 66 -24 116l-8 96h-249l-18 -162c-4 -36 -8.66699 -59.667 -14 -71
c-10.667 -24 -29.667 -36 -57 -36c-42.667 -0 -64 26.333 -64 79v509c0 24 6.83301 44.167 20.5 60.5s32.5 24.5 56.5 24.5c22 0 40.333 -38.667 55 -116z" />
    <glyph glyph-name="I" unicode="I" horiz-adv-x="293" 
d="M126 0c-37.333 0 -56.001 26.332 -56.001 78.999v509c0 24 7 44.167 21 60.5s32.667 24.5 56 24.5c24.667 0 43.834 -8.66699 57.501 -26s20.167 -38.666 19.5 -63.999l-1 -12l-40 -475c-5.33301 -64 -24.333 -96 -57 -96z" />
    <glyph glyph-name="J" unicode="J" horiz-adv-x="560" 
d="M525 259c0 -76.667 -22.666 -140.667 -67.999 -192s-106 -77 -182 -77c-66.667 0 -125.334 23.667 -176.001 71s-76 104.333 -76 171c0 24 6.83301 44.333 20.5 61s32.167 25 55.5 25c32 0 54 -15 66 -45c9.33301 -28 18.333 -56.333 27 -85
c15.333 -30 42.333 -45 81 -45c58 0 92.667 45.667 104 137c4 84.667 7.66699 169.667 11 255c7.33301 91.333 36 137 86 137c34 0 51 -28 51 -84v-329z" />
    <glyph glyph-name="K" unicode="K" horiz-adv-x="567" 
d="M323 356c149.333 -179.333 223.998 -286.999 223.998 -322.999c0 -28 -14.667 -42 -44 -42c-21.333 0 -44.666 13 -69.999 39l-240 246l-7 -193c-1.33301 -28.667 -3.66602 -48.334 -6.99902 -59.001c-7.33301 -22 -21.666 -33 -42.999 -33c-24.667 0 -41 10.333 -49 31
c-4 8.66699 -7 29.334 -9 62.001l-33 504c0 24 7 44.167 21 60.5s32.667 24.5 56 24.5c50.667 0 76 -31 76 -93c0 -6.66699 -2 -66.667 -6 -180l207 214c31.333 32 57.666 48 78.999 48c26 0 39 -13 39 -39c0 -14.667 -31.333 -62.334 -94 -143.001z" />
    <glyph glyph-name="L" unicode="L" horiz-adv-x="502" 
d="M193 140c32.667 -3.33301 65 -6.33398 97 -9.00098c50 -6 88.667 -14.667 116 -26c37.333 -15.333 56 -36.666 56 -63.999s-19.667 -41 -59 -41h-274c-59.333 0 -89 29.667 -89 89v499c0 57.333 18 86 54 86c30.667 0 51 -10.333 61 -31c6.66699 -12 11 -35.667 13 -71z
" />
    <glyph glyph-name="M" unicode="M" horiz-adv-x="819" 
d="M406 318l63.999 298c4 20.667 19 34 45 40c12 2.66699 34.333 4 67 4c41.333 0 66 -15.333 74 -46l126 -507c8.66699 -35.333 13 -57.333 13 -66c0 -32 -14.333 -48 -43 -48c-36.667 0 -64.667 25.667 -84 77l-126 336l-65 -347
c-3.33301 -17.333 -11.666 -32.5 -24.999 -45.5s-28.333 -19.5 -45 -19.5c-38.667 0 -62 21.667 -70 65l-65 349l-120 -332c-20 -54 -48 -81 -84 -81c-29.333 0 -44 16.333 -44 49c0 10 4.33301 33 13 69l117 496c5.33301 24 17.666 39.667 36.999 47
c10.667 4 31.334 6 62.001 6c47.333 0 75 -17 83 -51z" />
    <glyph glyph-name="N" unicode="N" horiz-adv-x="668" 
d="M463 251l51.001 319.999c10.667 65.333 36.667 98 78 98c20.667 0 31 -25 31 -75v-503c0 -42 -11.333 -69 -34 -81c-14 -6.66699 -44.667 -10 -92 -10l-296 418l-44 -320c-4.66699 -32.667 -10.667 -55.667 -18 -69c-12 -22 -31.667 -33 -59 -33
c-23.333 0 -35 27.667 -35 83v505c0 60 16.333 90 49 90c25.333 0 44.166 -2.66699 56.499 -8s25.5 -17.666 39.5 -36.999z" />
    <glyph glyph-name="O" unicode="O" horiz-adv-x="663" 
d="M640 350c0 -95.333 -26.333 -177.332 -79 -245.999c-58 -75.333 -133.333 -113 -226 -113c-94 0 -170.333 34 -229 102c-55.333 64.667 -83 144.667 -83 240s27.333 175.666 82 240.999c58.667 69.333 134.667 104 228 104c85.333 0 158.333 -33.667 219 -101
c58.667 -65.333 88 -141 88 -227zM339 500.001c-52 0 -92.333 -15 -121 -45s-43 -71 -43 -123c0 -54.667 14 -105 42 -151c32 -53.333 73.667 -80 125 -80c50.667 0 90.667 27.333 120 82c24.667 44.667 37 94.667 37 150c0 49.333 -14.333 89.5 -43 120.5
s-67.667 46.5 -117 46.5z" />
    <glyph glyph-name="P" unicode="P" horiz-adv-x="544" 
d="M264 201c75.333 0 136.332 17.335 182.999 52.002c52.667 39.333 79 95.333 79 168c0 88 -32.333 153 -97 195c-54.667 35.333 -127.667 53 -219 53c-9.33301 0 -37.666 -0.666992 -84.999 -2c-34.667 -0.666992 -63.334 -0.333984 -86.001 0.999023l-2 -12l-1 -605
c0 -36.667 11.333 -55 34 -55c34.667 0 56 29 64 87l56 438h60c48 0 80.667 -6.66699 98 -20c20 -15.333 30 -46.333 30 -93c0 -41.333 -14.333 -71.333 -43 -90c-9.33301 -6.66699 -36.333 -17 -81 -31c-29.333 -10 -44 -23.667 -44 -41
c0 -12.667 5.83301 -23.334 17.5 -32.001s23.834 -13 36.501 -13z" />
    <glyph glyph-name="Q" unicode="Q" horiz-adv-x="669" 
d="M656 33c0 -25.333 -15.667 -37.998 -47 -37.998c-17.333 0 -47.333 20.333 -90 61c-54.667 -43.333 -116 -65 -184 -65c-94 0 -170.333 34 -229 102c-55.333 64.667 -83 144.667 -83 240s27.333 175.666 82 240.999c58.667 69.333 134.667 104 228 104
c85.333 0 158.333 -33.667 219 -101c58.667 -65.333 88 -141 88 -227c0 -82.667 -18.667 -154.334 -56 -215.001c48 -38.667 72 -72.667 72 -102zM383 194.002c0 10.667 5.5 21.334 16.5 32.001s21.833 16 32.5 16c14 0 31.333 -8.33301 52 -25c10 20.667 15 46.667 15 78
c0 136.667 -53.333 205 -160 205c-52 0 -92.333 -15 -121 -45s-43 -71 -43 -123c0 -62.667 15.333 -115.334 46 -158.001c34 -48.667 81 -73 141 -73c26 0 46.667 10.667 62 32c-27.333 24.667 -41 45 -41 61z" />
    <glyph glyph-name="R" unicode="R" horiz-adv-x="539" 
d="M80 -6c-26 0 -39.001 17 -39.001 51l1 622h210c82.667 0 143.334 -16 182.001 -48c42.667 -34.667 64 -92.334 64 -173.001c0 -46.667 -11.333 -83 -34 -109c-18.667 -22 -51 -43.333 -97 -64c19.333 -16 46 -54 80 -114s51 -101 51 -123c0 -28 -9 -42 -27 -42
c-28 0 -54 14.667 -78 44c-12.667 15.333 -31.667 46 -57 92c-22 40.667 -40.333 67.667 -55 81l-50 32c-23.333 15.333 -35 29.333 -35 42s15 25.334 45 38.001c46.667 19.333 74.667 32 84 38c30.667 19.333 46 43.666 46 72.999c0 49.333 -7.33301 82.5 -22 99.5
s-46 25.5 -94 25.5h-55l-61 -453c-5.33301 -37.333 -9.33301 -60.666 -12 -69.999c-9.33301 -28 -25 -42 -47 -42z" />
    <glyph glyph-name="S" unicode="S" horiz-adv-x="516" 
d="M254 677c33.333 0 67.6689 -7.33203 103.002 -21.999c43.333 -18.667 65 -42.334 65 -71.001c0 -28 -11 -42 -33 -42c-18.667 0 -35 4.66699 -49 14l2 -2c-23.333 14 -41 21 -53 21c-77.333 0 -116 -29 -116 -87c0 -26.667 27.667 -48.334 83 -65.001
c82 -24.667 134 -43.667 156 -57c55.333 -34.667 83 -87 83 -157c0 -67.333 -24 -121.333 -72 -162c-45.333 -38 -102.333 -57 -171 -57c-47.333 0 -88.333 5.66699 -123 17c-50.667 17.333 -76 44.333 -76 81c0 34 16.667 51 50 51c18 0 40.667 -9.66699 68 -29
s50.666 -29 69.999 -29c38.667 0 66 12 82 36c12.667 19.333 19 49.333 19 90c0 32.667 -27.667 57.667 -83 75c-90.667 28.667 -142 46.334 -154 53.001c-55.333 31.333 -83 80 -83 146c0 61.333 24 110.333 72 147c43.333 32.667 96.666 49 159.999 49z" />
    <glyph glyph-name="T" unicode="T" horiz-adv-x="585" 
d="M369 527l-33.999 -476.001c-2.66699 -34 -15.334 -51 -38.001 -51c-18 0 -29.833 3.66699 -35.5 11s-9.16699 20.333 -10.5 39l-35 477c-24 4 -60 13.333 -108 28c-56 18 -87.333 32 -94 42c0 21.333 7.5 38.333 22.5 51s33.5 19 55.5 19h401
c22 0 40.5 -6.33301 55.5 -19s22.5 -29.667 22.5 -51c-56.667 -43.333 -124 -66.666 -202 -69.999z" />
    <glyph glyph-name="U" unicode="U" horiz-adv-x="601" 
d="M31 260v328.001c0 25.333 2.66699 43.333 8 54c8 16 23.667 24 47 24c26.667 0 42.667 -10.667 48 -32c2 -21.333 3.66699 -42.666 5 -63.999l27 -327c2.66699 -32.667 18 -58.667 46 -78c25.333 -17.333 55 -26 89 -26c34.667 0 62.834 12 84.501 36
s32.5 53.667 32.5 89c0 27.333 0.666992 72.666 2 135.999c0.666992 58.667 1 104 1 136c-0.666992 50 -2.33398 95.333 -5.00098 136c8.66699 0.666992 20.667 1 36 1c39.333 0 67.333 -4 84 -12c23.333 -12.667 35 -37 35 -73v-324c0 -76.667 -25.667 -141.5 -77 -194.5
s-115 -79.5 -191 -79.5c-75.333 0 -139.5 26.167 -192.5 78.5s-79.5 116.166 -79.5 191.499z" />
    <glyph glyph-name="V" unicode="V" horiz-adv-x="658" 
d="M340 234l191 374.998c12 24 22 40.333 30 49c13.333 14.667 30 22 50 22c21.333 0 32 -13.667 32 -41c0 -14 -3.33301 -30.333 -10 -49c-6.66699 -15.333 -13 -30.666 -19 -45.999l-202 -544h-150l-223 543c-16 38.667 -24 68.334 -24 89.001c0 30.667 11.333 46 34 46
c19.333 0 36 -8 50 -24c5.33301 -6 15.333 -22 30 -48z" />
    <glyph glyph-name="W" unicode="W" horiz-adv-x="925" 
d="M654 280l140 310.001c12.667 27.333 22.334 45 29.001 53c13.333 17.333 30.333 26 51 26c23.333 0 35 -14.667 35 -44c0 -14.667 -5.66699 -39.334 -17 -74.001l-179 -551h-114l-135 397l-127 -397h-124l-179 548c-12.667 39.333 -19 67 -19 83
c0 25.333 11.333 38 34 38c20.667 0 37.667 -8.33301 51 -25c6 -8 15.333 -25.333 28 -52l146 -312l142 342c8.66699 20.667 13.667 32 15 34c7.33301 10.667 18 16 32 16c13.333 0 23.666 -5 30.999 -15c2.66699 -4 7.66699 -15 15 -33z" />
    <glyph glyph-name="X" unicode="X" horiz-adv-x="571" 
d="M384 342l101.001 -143.001c49.333 -73.333 74 -120.666 74 -141.999c0 -38 -17.333 -57 -52 -57c-26.667 0 -67.334 32.667 -122.001 98l-97 127l-95 -128c-52.667 -64.667 -92.667 -97 -120 -97c-34.667 0 -52 20 -52 60c0 21.333 24.333 68 73 140l99 142l-93 136
c-46.667 70.667 -70 115 -70 133c0 32 18.333 48 55 48c22.667 0 58.667 -28 108 -84l95 -116l102 120c52 57.333 90 86 114 86c30.667 0 46 -17.333 46 -52c0 -22 -23.333 -67.333 -70 -136z" />
    <glyph glyph-name="Y" unicode="Y" horiz-adv-x="577" 
d="M291 434l103.002 129.999c58.667 68.667 101 103 127 103c27.333 0 41 -16 41 -48c0 -21.333 -27.667 -76 -83 -164l-111 -170l-12 -151c-12.667 -93.333 -32.334 -140 -59.001 -140c-28.667 0 -50.667 46 -66 138l-16 153l-115 167
c-56.667 86.667 -85 141.334 -85 164.001c0 34 13.667 51 41 51c15.333 0 29.666 -5.33301 42.999 -16c5.33301 -4 16 -15.333 32 -34z" />
    <glyph glyph-name="Z" unicode="Z" horiz-adv-x="590" 
d="M241 140l256.001 -33.002c27.333 -3.33301 44.666 -6.66602 51.999 -9.99902c16 -7.33301 24 -21.333 24 -42c0 -36.667 -27 -55 -81 -55h-475v76l325 451l-226 39c-26.667 4.66699 -43 8.33398 -49 11.001c-16.667 7.33301 -25 20.333 -25 39c0 34 22.667 51 68 51h343
c70.667 0 106 -26.333 106 -79c0 -18 -7.33301 -36.667 -22 -56z" />
    <glyph glyph-name="bracketleft" unicode="[" horiz-adv-x="377" 
d="M185 31c50 -8.66699 78.332 -14.001 84.999 -16.001c36.667 -12 55 -30 55 -54c0 -21.333 -9.66699 -38.666 -29 -51.999c-16.667 -12 -36.334 -18 -59.001 -18h-78c-36 0 -60 9.33301 -72 28c-8.66699 14 -13.667 40.333 -15 79c-13.333 373.333 -20 601.333 -20 684
c0 59.333 29.667 89 89 89h91c22.667 0 42.334 -6 59.001 -18c19.333 -12.667 29 -30 29 -52c0 -24 -17.667 -41.667 -53 -53c-27.333 -5.33301 -54.666 -11 -81.999 -17v-600z" />
    <glyph glyph-name="backslash" unicode="\" horiz-adv-x="343" 
d="M14 714c0 20 6.33496 36 19.002 48s28.667 18 48 18c41.333 0 67.666 -24.667 78.999 -74l162 -713c4.66699 -20.667 7 -38.667 7 -54c0 -33.333 -13.667 -50 -41 -50c-30.667 0 -52.334 22.333 -65.001 67l-116 393c-62 216 -93 337.667 -93 365z" />
    <glyph glyph-name="bracketright" unicode="]" horiz-adv-x="377" 
d="M192 31v600.002c-27.333 6 -54.666 11.667 -81.999 17c-35.333 11.333 -53 29 -53 53c0 21.333 9.66699 38.666 29 51.999c17.333 12 37 18 59 18h91c59.333 0 89 -31.667 89 -95c0 -90.667 -2.33301 -203.667 -7 -339c-4.66699 -113.333 -9 -226.333 -13 -339
c-1.33301 -38 -6.66602 -64 -15.999 -78c-12 -19.333 -35.667 -29 -71 -29h-78c-22.667 0 -42.334 6 -59.001 18c-19.333 12.667 -29 30 -29 52c0 24 18.333 42 55 54c5.33301 1.33301 33.666 6.66602 84.999 15.999z" />
    <glyph glyph-name="asciicircum" unicode="^" 
d="M328 350l-84.999 183l-86 -183c-8.66699 -8 -20 -12 -34 -12c-14.667 0 -28.334 4 -41.001 12c36 98 80 192.333 132 283h58c52 -76.667 95.667 -171 131 -283c-12 -7.33301 -24 -11 -36 -11c-12.667 0 -25.667 3.66699 -39 11z" />
    <glyph glyph-name="underscore" unicode="_" horiz-adv-x="500" 
d="M0 -133v133h500v-133h-500z" />
    <glyph glyph-name="grave" unicode="`" horiz-adv-x="299" 
d="M234 577c0 -34 -18 -51 -54 -51c-22.667 0 -47.5 14.167 -74.5 42.5s-40.5 53.833 -40.5 76.5c0 16 5.5 28.833 16.5 38.5s24.5 14.5 40.5 14.5c20 0 43.667 -15 71 -45s41 -55.333 41 -76z" />
    <glyph glyph-name="a" unicode="a" horiz-adv-x="478" 
d="M306 34c-37.333 -28.667 -75 -42.9971 -113 -42.9971c-44.667 0 -83.167 15.5 -115.5 46.5s-48.5 68.833 -48.5 113.5c0 67.333 31 113.333 93 138c40 15.333 99.667 22.666 179 21.999c0 56.667 -20 85 -60 85c-14 0 -34 -4.66699 -60 -14s-46 -14 -60 -14
c-11.333 0 -21.333 4.16699 -30 12.5s-13 18.166 -13 29.499c0 25.333 21.667 44.666 65 57.999c31.333 10 63.666 15 96.999 15c80.667 0 135 -19.333 163 -58c22.667 -31.333 34 -89 34 -173v-170c0 -8 2 -19.5 6 -34.5s6 -26.5 6 -34.5l-4 -13
c-6 -6.66699 -16.667 -10 -32 -10c-29.333 0 -49.666 1.66699 -60.999 5c-20.667 6 -36 19 -46 39zM301 166.003c0 26 -4.83203 44 -14.499 54s-26.834 15 -51.501 15c-23.333 0 -44.833 -8 -64.5 -24s-29.5 -35.333 -29.5 -58c0 -59.333 27.333 -89 82 -89
c26 0 46 11 60 33c12 18 18 41 18 69z" />
    <glyph glyph-name="b" unicode="b" horiz-adv-x="543" 
d="M153 429c46 36 94.668 53.999 146.001 53.999c66.667 0 121.334 -24.167 164.001 -72.5s64 -106.166 64 -173.499c0 -68.667 -21 -126.667 -63 -174c-44 -48.667 -100 -73 -168 -73c-24.667 0 -54 12 -88 36c-10.667 7.33301 -35.667 28.333 -75 63l-8 -60
c-6 -24 -19.333 -36 -40 -36c-19.333 0 -31.666 10.667 -36.999 32c-2.66699 8.66699 -4.33398 27 -5.00098 55l-10 513c-0.666992 20.667 5.16602 38.167 17.499 52.5s28.833 21.5 49.5 21.5c21.333 0 37.666 -7.66699 48.999 -23s17 -34 17 -56
c0 -3.33301 -4.33301 -56.333 -13 -159zM249.001 348.999c-42.667 0 -72 -10.998 -88 -32.998c-12.667 -18 -19 -49.333 -19 -94c0 -40.667 12.667 -68.334 38 -83.001c18 -10 49.667 -15 95 -15c31.333 0 58 11.167 80 33.5s33 49.166 33 80.499c0 38 -14 66.667 -42 86
c-24.667 16.667 -57 25 -97 25z" />
    <glyph glyph-name="c" unicode="c" horiz-adv-x="489" 
d="M24 238c0 66.667 24.166 124.335 72.499 173.002s105.833 73 172.5 73c32.667 0 67.667 -7.33301 105 -22c46.667 -18.667 70 -41.334 70 -68.001c0 -20 -12.333 -30 -37 -30c-11.333 0 -27.5 3.66699 -48.5 11s-36.833 11 -47.5 11c-46 0 -85 -13 -117 -39
c-34 -28.667 -51 -65.334 -51 -110.001c0 -44 15.333 -79.833 46 -107.5s68.334 -41.5 113.001 -41.5c25.333 0 50.833 7.5 76.5 22.5s44.5 22.5 56.5 22.5c20.667 0 31 -8 31 -24c0 -30 -25.667 -58 -77 -84c-44.667 -23.333 -83.667 -35 -117 -35
c-68 0 -126.333 24.333 -175 73s-73 107 -73 175z" />
    <glyph glyph-name="d" unicode="d" horiz-adv-x="509" 
d="M365 429c-46 36 -94.6689 54 -146.002 54c-66 0 -117.333 -26 -154 -78c-33.333 -46 -50 -103 -50 -171c0 -69.333 16.667 -126 50 -170c37.333 -49.333 89.666 -74 156.999 -74c24.667 0 54.334 12.333 89.001 37c11.333 8 37 29.333 77 64l4 -58
c4 -26.667 13.667 -40 29 -40c24.667 0 40.667 9.33301 48 28c3.33301 9.33301 5.33301 29 6 59l10 513c0.666992 20.667 -5.16602 38.167 -17.499 52.5s-28.833 21.5 -49.5 21.5c-21.333 0 -37.666 -7.66699 -48.999 -23s-17 -34 -17 -56
c0 -3.33301 4.33301 -56.333 13 -159zM268.998 349c46 0 76.333 -12.666 91 -37.999c10.667 -18.667 16 -52.667 16 -102c0 -56.667 -44.333 -85 -133 -85c-31.333 0 -58 11.167 -80 33.5s-33 49.166 -33 80.499c0 38 14.333 66.667 43 86c24 16.667 56 25 96 25z" />
    <glyph glyph-name="e" unicode="e" horiz-adv-x="498" 
d="M161 167c6 -50.667 52.668 -76 140.001 -76c12 0 29.667 2.5 53 7.5s41 7.5 53 7.5c34.667 0 52 -13 52 -39c0 -28 -29.333 -49.333 -88 -64c-40.667 -10.667 -81.334 -16 -122.001 -16c-63.333 0 -118 25.667 -164 77c-44.667 49.333 -67 106 -67 170
c0 66 24.5 123 73.5 171s106.833 72 173.5 72c54 0 104 -18.333 150 -55c48.667 -38.667 73 -84.334 73 -137.001c0 -45.333 -24.667 -71.666 -74 -78.999zM369.001 307c-5.33301 15.333 -19.001 30 -41.001 44s-41.667 21 -59 21c-71.333 0 -109.666 -41.667 -114.999 -125
z" />
    <glyph glyph-name="f" unicode="f" horiz-adv-x="348" 
d="M226 549c-14 -16 -20.998 -32.999 -20.998 -50.999c0 -4.66699 0.5 -11.667 1.5 -21s1.5 -16.333 1.5 -21h24c54 0.666992 81 -16.333 81 -51c0 -24.667 -12.667 -40.334 -38 -47.001c-12 -4 -34.333 -5.66699 -67 -5l-27 -268c-3.33301 -30.667 -7 -51 -11 -61
c-8.66699 -19.333 -25 -29 -49 -29c-32.667 0 -49 74 -49 222c0 23.333 0.5 50.833 1.5 82.5s1.5 49.5 1.5 53.5c-49.333 2.66699 -74 21 -74 55c0 30 27 45 81 45v53c0 107.333 45.333 161 136 161c85.333 0 128 -12 128 -36c0 -19.333 -13 -58.333 -39 -117
c-16.667 16.667 -26.334 25.667 -29.001 27c-8.66699 6 -21.334 8.66699 -38.001 8h-14z" />
    <glyph glyph-name="g" unicode="g" horiz-adv-x="518" 
d="M249 -88c-17.333 0 -41.1699 5.66699 -71.5029 17s-53.5 17 -69.5 17c-27.333 0 -41 -14.333 -41 -43c0 -36 24.667 -62 74 -78c33.333 -10.667 74 -16 122 -16c80.667 0 139.334 22 176.001 66c33.333 40 51 101.667 53 185l10 388c-14.667 20 -32.667 30 -54 30
c-16 0 -31.667 -4 -47 -12c-17.333 -8.66699 -29 -19.667 -35 -33c-46 36 -94.667 54 -146 54c-66 0 -117.333 -24 -154 -72c-33.333 -43.333 -50 -99 -50 -167c0 -68.667 17 -122.667 51 -162c36.667 -41.333 88.667 -62 156 -62c46.667 0 101.334 27 164.001 81l1 -32
c2.66699 -107.333 -43.666 -161 -138.999 -161zM269.996 363c42.667 0 72 -10.666 88 -31.999c12.667 -18 19 -49 19 -93c0 -66.667 -44.333 -100 -133 -100c-31.333 0 -58 11.167 -80 33.5s-33 49.166 -33 80.499c0 38 14.333 66.667 43 86c24 16.667 56 25 96 25z" />
    <glyph glyph-name="h" unicode="h" horiz-adv-x="466" 
d="M162 443c16 10 32.001 19.501 48.001 28.501s34 13.5 54 13.5c51.333 0 95 -14 131 -42c38 -30.667 57 -71.334 57 -122.001c0 -67.333 -4 -129.666 -12 -186.999c-13.333 -94.667 -35.333 -142 -66 -142c-28 0 -42 43.333 -42 130c0 15.333 0.5 34.166 1.5 56.499
s1.5 34.833 1.5 37.5c0 102 -28.667 153 -86 153c-40 0 -68 -10.667 -84 -32c-6.66699 -8.66699 -11.667 -43.334 -15 -104.001c-4.66699 -75.333 -9.33398 -126.666 -14.001 -153.999c-10 -52.667 -26.333 -79 -49 -79c-20 0 -33.333 6.66699 -40 20
c-4.66699 9.33301 -7 25 -7 47v601c22 -1.33301 67.333 -1.33301 136 0c-3.33301 -50 -8 -125 -14 -225z" />
    <glyph glyph-name="i" unicode="i" horiz-adv-x="218" 
d="M142 480c27.333 0.666992 40.998 -7.66699 40.998 -25c0 -48 -5 -109.333 -15 -184c-14.667 -110.667 -22.667 -172 -24 -184c-3.33301 -36 -5.66602 -55.667 -6.99902 -59c-6 -23.333 -18.667 -35 -38 -35c-17.333 0 -28.666 10.333 -33.999 31
c-2 6.66699 -3.33301 24 -4 52c-2.66699 90 -8.66699 224.667 -18 404h99zM110.998 667.999c21.333 0 39.833 -7.83398 55.5 -23.501s23.5 -34.167 23.5 -55.5c0 -14 -10 -30.833 -30 -50.5s-37 -29.5 -51 -29.5s-30.833 9.5 -50.5 28.5s-29.5 35.5 -29.5 49.5
c0 22.667 8 41.834 24 57.501s35.333 23.5 58 23.5z" />
    <glyph glyph-name="j" unicode="j" horiz-adv-x="233" 
d="M128 668c20 0 38.333 -6.66895 55 -20.002s25 -29.666 25 -48.999c0 -16.667 -9.33301 -35.834 -28 -57.501s-36.334 -32.5 -53.001 -32.5c-12.667 0 -29.167 9.83301 -49.5 29.5s-30.5 35.834 -30.5 48.501c0 22.667 7.83301 41.834 23.5 57.501
s34.834 23.5 57.501 23.5zM51 -144.002c-8.66699 0 -17.166 3.33301 -25.499 10s-13.833 14.334 -16.5 23.001c2.66699 13.333 13.667 36 33 68c16 25.333 24 57 24 95c0 110 -6.33301 252.667 -19 428h109c27.333 0 41 -8.33301 41 -25
c0 -32.667 -7.66699 -114.334 -23 -245.001c-15.333 -134.667 -27 -215 -35 -241c-5.33301 -18.667 -17 -41 -35 -67c-20.667 -30.667 -38.334 -46 -53.001 -46z" />
    <glyph glyph-name="k" unicode="k" horiz-adv-x="478" 
d="M158 327l130 83.001c66.667 42 108.334 63 125.001 63c23.333 0 35 -14 35 -42c0 -36 -56 -94.333 -168 -175c109.333 -124 164 -197 164 -219c0 -30 -18 -45 -54 -45c-20 0 -61 33.333 -123 100l-109 123l-8 -129c-9.33301 -58.667 -31.333 -88 -66 -88
c-30 0 -45 19 -45 57l2 612h106c19.333 0 29 -6 29 -18c0 -42 -2.33301 -95.667 -7 -161c-6.66699 -92.667 -10.334 -146.334 -11.001 -161.001z" />
    <glyph glyph-name="l" unicode="l" horiz-adv-x="229" 
d="M109 -7c-23.333 0 -36 26.3311 -38 78.998l-10 297c-4 114.667 -9.33301 213.667 -16 297h99c27.333 0.666992 41 -7.66602 41 -24.999c0 -7.33301 -1 -17.666 -3 -30.999s-3 -23 -3 -29l-24 -503c-1.33301 -28 -3.33301 -46.333 -6 -55c-6.66699 -20 -20 -30 -40 -30z
" />
    <glyph glyph-name="m" unicode="m" horiz-adv-x="751" 
d="M380 429c42 36 88.334 54 139.001 54c54 0 101.667 -18.333 143 -55c44 -38 66 -83.333 66 -136c0 -64 -3.66699 -121.333 -11 -172c-12.667 -86 -34.334 -129 -65.001 -129c-25.333 0 -39 31.333 -41 94c-4 110.667 -6.33301 168.334 -7 173.001
c-10.667 62.667 -38.667 94 -84 94c-40 0 -64 -30.333 -72 -91l-10 -170c-6.66699 -60.667 -28.667 -91 -66 -91c-18 0 -30.333 12.667 -37 38c-4 17.333 -6 47 -6 89v36c0 60 -4.33301 103.333 -13 130c-13.333 40.667 -38.666 61 -75.999 61c-42 0 -69 -31.333 -81 -94
l-18 -174c-8.66699 -62.667 -30.667 -94 -66 -94c-18.667 0 -31.334 8.66699 -38.001 26c-3.33301 9.33301 -5 25.666 -5 48.999v445h83c8 0 14.833 -8 20.5 -24s10.5 -24 14.5 -24l34 13.5c22.667 9 40.667 13.5 54 13.5c42 0 89.333 -20.667 142 -62z" />
    <glyph glyph-name="n" unicode="n" horiz-adv-x="471" 
d="M35 67c0 -48 14.334 -72 43.001 -72c29.333 0 47.333 32 54 96c11.333 117.333 17.333 177 18 179c15.333 64 48.666 96 99.999 96c55.333 0 83 -57.333 83 -172c0 -14 -0.333008 -31.667 -1 -53s-1 -35 -1 -41c0 -66.667 11.333 -100 34 -100c24 0 40.333 9 49 27
c5.33301 10.667 9.33301 30 12 58c12.667 144.667 19 225 19 241c0 47.333 -21.667 86 -65 116c-38.667 27.333 -82.667 41 -132 41c-15.333 0 -33.833 -3.66699 -55.5 -11s-34.5 -11 -38.5 -11l-13 1l-20 29h-86v-424z" />
    <glyph glyph-name="o" unicode="o" horiz-adv-x="496" 
d="M250 487c68 0 123.335 -25.002 166.002 -75.002c40.667 -48 61 -106.333 61 -175c0 -67.333 -21.333 -124.666 -64 -171.999s-97.334 -71 -164.001 -71s-121.334 23.333 -164.001 70s-64 103.334 -64 170.001c0 70.667 20.333 129.667 61 177
c42.667 50.667 98.667 76 168 76zM250.002 353.998c-32 0 -55.999 -12.333 -71.999 -37c-14 -20.667 -21 -47.667 -21 -81c0 -106.667 30.667 -160 92 -160c39.333 0 65.666 16.333 78.999 49c8.66699 20.667 13 54 13 100c0 86 -30.333 129 -91 129z" />
    <glyph glyph-name="p" unicode="p" horiz-adv-x="539" 
d="M146 94c46 -36 94.666 -53.999 145.999 -53.999c66.667 0 121.667 24.667 165 74c42 47.333 63 104.666 63 171.999c0 68.667 -21 126.667 -63 174c-44 48.667 -100 73 -168 73c-42 0 -87 -20.667 -135 -62c-12.667 39.333 -34 59 -64 59
c-27.333 0 -45.666 -8.33301 -54.999 -25c-6 -11.333 -9 -32 -9 -62v-536c0 -50 12.667 -75 38 -75c40 0 62.333 28 67 84zM241.999 174.001c-45.333 0 -75.666 12.667 -90.999 38c-10.667 18.667 -16 52.667 -16 102c0 35.333 10 59 30 71
c15.333 9.33301 41.666 14 78.999 14c40 0 72 -8.66699 96 -26c27.333 -20 41 -49.333 41 -88c0 -38 -14 -66.667 -42 -86c-24.667 -16.667 -57 -25 -97 -25z" />
    <glyph glyph-name="q" unicode="q" horiz-adv-x="539" 
d="M371 85c-38 -30 -79.334 -45 -124.001 -45c-66.667 0 -121.667 24.667 -165 74c-42 47.333 -63 104.666 -63 171.999c0 68.667 21.5 127 64.5 175s98.5 72 166.5 72c38 0 85 -24.333 141 -73c6.66699 22.667 12.667 37.667 18 45c9.33301 12 24 18 44 18
c40.667 0 61 -19.667 61 -59c0 -74 -4.33301 -167.333 -13 -280l-21 -280c-2 -28 -4.66699 -47 -8 -57c-7.33301 -20.667 -21.666 -31 -42.999 -31c-40 0 -60 63 -60 189c0 14 0.333008 30 1 48c0 10.667 0.333008 21.334 1 32.001zM296.999 174
c45.333 0 75.666 12.667 90.999 38c10.667 18.667 16 52.667 16 102c0 35.333 -10 59 -30 71c-15.333 9.33301 -41.666 14 -78.999 14c-40 0 -72 -8.66699 -96 -26c-27.333 -20 -41 -49.333 -41 -88c0 -38 14.333 -66.667 43 -86c24 -16.667 56 -25 96 -25z" />
    <glyph glyph-name="r" unicode="r" horiz-adv-x="362" 
d="M155 448c26.667 23.333 64.333 35 113 35c22.667 0 42.667 -8 60 -24s26 -35.333 26 -58c0 -28 -16.333 -42 -49 -42c-12.667 0 -30 5.16699 -52 15.5s-39 15.5 -51 15.5c-28.667 0 -47 -33.667 -55 -101l-16 -188c-10 -67.333 -32 -101 -66 -101
c-24.667 -0 -37 22.333 -37 67v363c0 34 14.667 51 44 51c44 0 71.667 -11 83 -33z" />
    <glyph glyph-name="s" unicode="s" horiz-adv-x="432" 
d="M220 484c33.333 0 66.002 -7 98.002 -21c40.667 -16.667 61 -39.334 61 -68.001c0 -22.667 -11.667 -34 -35 -34c-17.333 0 -38.833 9.16699 -64.5 27.5s-46.167 27.5 -61.5 27.5c-14 0 -27.333 -4.33301 -40 -13c-14.667 -9.33301 -22 -20.666 -22 -33.999
c0 -16 22 -31.333 66 -46c62.667 -20 104 -36.667 124 -50c44.667 -28.667 67 -67.667 67 -117c0 -51.333 -19.667 -92.333 -59 -123c-36 -28.667 -80.333 -43 -133 -43c-40.667 0 -82.334 9.66699 -125.001 29c-51.333 24 -77 53.667 -77 89c0 22 11.333 33 34 33
s49.167 -12.333 79.5 -37s57.166 -37 80.499 -37c20 0 38.333 6 55 18c19.333 12.667 29 28.334 29 47.001c0 25.333 -22 44.333 -66 57c-70.667 20.667 -111 33.667 -121 39c-43.333 23.333 -65 60.666 -65 111.999c0 45.333 18.333 81.333 55 108
c32.667 24 72.667 36 120 36z" />
    <glyph glyph-name="t" unicode="t" horiz-adv-x="322" 
d="M86 444l0.000976562 189h97c24.667 0 37 -12 37 -36v-16c-0.666992 -7.33301 -1 -12.666 -1 -15.999v-124l30 1c41.333 0.666992 62 -14 62 -44c0 -22 -11 -36 -33 -42c-8.66699 -2 -28.334 -3 -59.001 -3l-12 -235c-8 -83.333 -26.333 -125 -55 -125
c-26 0 -44.333 54 -55 162c-3.33301 66 -7 132 -11 198c-23.333 0 -40.333 2 -51 6c-16 7.33301 -24 21 -24 41s8.33301 33.333 25 40c9.33301 3.33301 26 4.66602 50 3.99902z" />
    <glyph glyph-name="u" unicode="u" horiz-adv-x="478" 
d="M223 105c74.667 0 112.001 43 112.001 129v246h74c19.333 0 32.666 -2.33301 39.999 -7c8.66699 -6.66699 13 -19.334 13 -38.001c0 -14 0.5 -35 1.5 -63s1.5 -49 1.5 -63c0 -212.667 -73.333 -319 -220 -319c-65.333 0 -118.333 23.333 -159 70
c-38 44 -57 99.333 -57 166v180c0 45.333 12.667 68 38 68c28.667 0 45.667 -32 51 -96c5.33301 -59.333 10.333 -118.666 15 -177.999c13.333 -63.333 43.333 -95 90 -95z" />
    <glyph glyph-name="v" unicode="v" horiz-adv-x="481" 
d="M240 170l130.001 226c12 20.667 21 34 27 40c11.333 12.667 25.333 19 42 19c23.333 0 35 -9.66699 35 -29c0 -18 -27 -88.333 -81 -211c-52.667 -120 -87.334 -191.667 -104.001 -215h-94c-26 48 -61.333 118.667 -106 212c-54.667 114.667 -82 182 -82 202
c0 26.667 14 40 42 40c24 0 60.667 -43.333 110 -130z" />
    <glyph glyph-name="w" unicode="w" horiz-adv-x="718" 
d="M358 244c-20.667 -54.667 -52.999 -135.998 -96.999 -243.998h-93c-101.333 270 -152 411 -152 423c0 26.667 13.667 40 41 40c25.333 0 48 -20 68 -60l91 -181l57 122c32 59.333 62 89 90 89s49.667 -16.667 65 -50l73 -161l89 178c12 24 20.333 38.667 25 44
c11.333 13.333 26.333 20 45 20c28.667 0 43 -14 43 -42c0 -24.667 -51.333 -165.334 -154 -422.001h-95c-14.667 31.333 -31.334 71.666 -50.001 120.999z" />
    <glyph glyph-name="x" unicode="x" horiz-adv-x="480" 
d="M241 339l84.001 71.001c43.333 35.333 71.666 53 84.999 53c33.333 0 50 -17.333 50 -52c0 -16.667 -18.333 -45 -55 -85l-76 -79l83 -93c40.667 -48 61 -79.667 61 -95c0 -17.333 -5 -31.5 -15 -42.5s-23.333 -16.5 -40 -16.5c-17.333 0 -48 20.333 -92 61l-85 85
l-90 -85c-46.667 -40.667 -78 -61 -94 -61c-14 0 -25.833 5.16699 -35.5 15.5s-14.5 22.5 -14.5 36.5c0 23.333 19.333 57.666 58 102.999l87 92l-72 81c-31.333 38 -47 67.667 -47 89c0 31.333 17.667 47 53 47c13.333 0 39.333 -17.667 78 -53z" />
    <glyph glyph-name="y" unicode="y" horiz-adv-x="504" 
d="M256 216l124.001 209.001l24 42c8.66699 10 24.667 15 48 15c16 0 27 -3.33301 33 -10s9 -18.334 9 -35.001c0 -14.667 -66.333 -160.334 -199 -437.001c-52.667 -109.333 -108.334 -164 -167.001 -164c-28 0 -53.667 7.33301 -77 22
c-27.333 16.667 -41 38.334 -41 65.001c0 27.333 13.333 41 40 41c10 0 24.667 -3.33301 44 -10s34.333 -10 45 -10c10 0 20.667 19.667 32 59l19 75l-97 185c-48 95.333 -72 154 -72 176c0 33.333 15 50 45 50c26 0 49 -18 69 -54z" />
    <glyph glyph-name="z" unicode="z" horiz-adv-x="438" 
d="M209 122c43.333 -3.33301 84.333 -10.001 123 -20.001c61.333 -15.333 92 -34 92 -56c0 -18.667 -5.33301 -31.334 -16 -38.001c-8 -5.33301 -21.333 -8 -40 -8h-354c0.666992 42.667 0.666992 68.334 0 77.001l202 274l-110 22c-54.667 14.667 -82 32.667 -82 54
c0 14.667 8.66699 26.334 26 35.001c14 8 29 12 45 12c18 0 70.333 -0.333008 157 -1c64 -0.666992 116.333 -0.666992 157 0v-70z" />
    <glyph glyph-name="braceleft" unicode="{" horiz-adv-x="268" 
d="M67 275c32.667 12 49 45.6641 49 100.997c0 12 -0.833008 30.167 -2.5 54.5s-2.5 42.5 -2.5 54.5c0 70.667 30 106 90 106v-8h-2c-28.667 0.666992 -43 -29.333 -43 -90c0 -13.333 0.833008 -30.833 2.5 -52.5s2.5 -34.5 2.5 -38.5c0 -70.667 -18 -113 -54 -127
c36 -13.333 54 -56 54 -128c0 -13.333 -0.666992 -31.166 -2 -53.499s-2 -37.166 -2 -44.499c0 -54 15 -80.667 45 -80v-8c-60.667 0 -91 34.667 -91 104c0 12 1 30.167 3 54.5s3 42.5 3 54.5c0 54.667 -16.667 88.334 -50 101.001z" />
    <glyph glyph-name="bar" unicode="|" 
d="M226 110v511h33v-511h-33z" />
    <glyph glyph-name="braceright" unicode="}" horiz-adv-x="265" 
d="M200 275c-33.333 -12.667 -50 -45.999 -50 -99.999c0 -12 0.833008 -30.167 2.5 -54.5s2.5 -42.5 2.5 -54.5c0 -69.333 -30 -104.333 -90 -105v8h5c27.333 0 41 29 41 87c0 14.667 -0.833008 33.5 -2.5 56.5s-2.5 36.833 -2.5 41.5c0 66.667 18 107 54 121
c-36.667 13.333 -55 57.666 -55 132.999c0 13.333 0.666992 31.5 2 54.5s2 37.833 2 44.5c0 54 -14.667 79 -44 75v9c60 0 90 -35 90 -105c0 -12 -0.833008 -30.333 -2.5 -55s-2.5 -43 -2.5 -55c0 -55.333 16.667 -89 50 -101z" />
    <glyph glyph-name="asciitilde" unicode="~" 
d="M112 203l-21.002 28c14 26 25 43.667 33 53c15.333 18.667 32.666 28 51.999 28c16 0 39.333 -8.16699 70 -24.5s52.334 -24.5 65.001 -24.5c22.667 0 43.334 20 62.001 60l21 -27c-24 -51.333 -51.667 -77 -83 -77c-14.667 0 -37.667 8.16699 -69 24.5
s-53 24.5 -65 24.5c-14.667 0 -28 -7.66699 -40 -23c-3.33301 -4.66699 -11.666 -18.667 -24.999 -42z" />
    <glyph glyph-name="nonbreakingspace" unicode="&#xa0;" horiz-adv-x="360" 
 />
    <glyph glyph-name="cent" unicode="&#xa2;" horiz-adv-x="490" 
d="M333 599c28 -7.33301 54.333 -19 79 -35c32 -20.667 48 -42.334 48 -65.001c0 -26 -14 -39 -42 -39c-23.333 0 -49.833 8.83301 -79.5 26.5s-53.834 26.5 -72.501 26.5c-35.333 0 -63 -17.333 -83 -52c-16 -28.667 -24 -61.667 -24 -99c0 -40.667 10.667 -74 32 -100
c23.333 -28 55 -42 95 -42c16.667 0 37.667 7.16699 63 21.5s46.333 21.5 63 21.5c36.667 0 55 -9.66699 55 -29c0 -26 -16.333 -50.333 -49 -73c-26 -17.333 -54.333 -29.666 -85 -36.999c0 -70.667 -19 -106 -57 -106c-28.667 0 -48.667 12 -60 36
c-5.33301 10.667 -11 35 -17 73c-53.333 20 -95.666 50 -126.999 90c-32 42.667 -48 91.667 -48 147c0 54 16.167 102.833 48.5 146.5s74.5 73.167 126.5 88.5c0.666992 71.333 23 107 67 107c28.667 0 48 -11.667 58 -35c6.66699 -15.333 9.66699 -39.333 9 -72z" />
    <glyph glyph-name="sterling" unicode="&#xa3;" horiz-adv-x="588" 
d="M234 140l259.999 -34.999c16.667 -2 32 -8 46 -18c16.667 -11.333 25 -25 25 -41c0 -30.667 -22.333 -46 -67 -46h-333c-24 0 -44 6.33301 -60 19c-18 14 -27 32.333 -27 55c0 22 6.66699 51.333 20 88c14.667 40 23 69.333 25 88c-66.667 0 -99.667 23.333 -99 70
c20.667 14 47.334 21 80.001 21c-5.33301 24 -8 61 -8 111c0 61.333 22.333 114.166 67 158.499s98 66.5 160 66.5s111.833 -19.167 149.5 -57.5s56.5 -88.833 56.5 -151.5c0 -21.333 -3 -36.333 -9 -45c-7.33301 -12 -21.333 -18 -42 -18c-23.333 0 -40 14.667 -50 44
c-16.667 50 -26 76.667 -28 80c-18 28.667 -48.667 43 -92 43c-20 0 -37.333 -7.5 -52 -22.5s-22 -32.167 -22 -51.5c0 -36.667 8.66699 -89 26 -157c52 0 88.333 -7.33301 109 -22l-1 1c0 -46.667 -32.333 -70 -97 -70c0 -41.333 -12.333 -78 -37 -110z" />
    <glyph glyph-name="copyright" unicode="&#xa9;" horiz-adv-x="530" 
d="M107 277c0 46.667 17.001 87 51.001 121s74.333 51 121 51c23.333 0 50.666 -7.33301 81.999 -22c36.667 -17.333 55 -36 55 -56c0 -19.333 -13.333 -29 -40 -29c-4.66699 0 -16 6.83301 -34 20.5s-39 20.5 -63 20.5c-26 0 -48.667 -11.167 -68 -33.5
s-29 -46.5 -29 -72.5c0 -27.333 11.167 -53.333 33.5 -78s46.833 -37 73.5 -37c18.667 0 37.667 8.66699 57 26s34 26 44 26c18.667 0 28 -10.333 28 -31c0 -20 -18.667 -38.667 -56 -56c-32 -14.667 -59.333 -22 -82 -22c-47.333 0 -88 17 -122 51s-51 74.333 -51 121z
M512.001 294c0 -76.667 -21.335 -142.667 -64.002 -198c-46 -60 -106 -90 -180 -90c-75.333 0 -136.333 27.333 -183 82c-44.667 51.333 -67 115.333 -67 192s22 141 66 193c46.667 55.333 107.334 83 182.001 83c68.667 0 126.834 -26.5 174.501 -79.5
s71.5 -113.833 71.5 -182.5zM270.999 494c-54.667 0 -101.834 -22 -141.501 -66s-59.5 -93.667 -59.5 -149c0 -54 20 -104.333 60 -151c42 -49.333 89.667 -74 143 -74c61.333 0 110 23 146 69c33.333 42 50 94.333 50 157c0 52 -19.667 100.333 -59 145
c-41.333 46 -87.666 69 -138.999 69z" />
    <glyph glyph-name="registered" unicode="&#xae;" horiz-adv-x="542" 
d="M193 108c-12.667 0 -18.999 8.66602 -18.999 25.999v311h105c87.333 0 131 -36.667 131 -110c0 -40.667 -24.333 -69.667 -73 -87c9.33301 -8 22.166 -26.5 38.499 -55.5s24.5 -48.833 24.5 -59.5c0 -14 -4.33301 -21 -13 -21c-17.333 0 -34.333 13 -51 39
c-21.333 35.333 -35 55.333 -41 60c-8.66699 6 -17 12.333 -25 19c-10.667 8.66699 -16.334 16.334 -17.001 23.001l7 17c32 5.33301 49.333 8.33301 52 9c16 7.33301 24 22 24 44c0 23.333 -2.33301 39.333 -7 48c-6.66699 13.333 -20.667 20 -42 20h-34l-34 -232l-4 -32
c-3.33301 -12.667 -10.666 -19 -21.999 -19zM518.001 293.999c0 -76.667 -21.335 -142.667 -64.002 -198c-46 -60 -106 -90 -180 -90c-75.333 0 -136.333 27.333 -183 82c-44.667 51.333 -67 115.333 -67 192s22 141 66 193c46.667 55.333 107.334 83 182.001 83
c68.667 0 126.834 -26.5 174.501 -79.5s71.5 -113.833 71.5 -182.5zM276.999 493.999c-54.667 0 -101.834 -22 -141.501 -66s-59.5 -93.667 -59.5 -149c0 -54 20 -104.333 60 -151c42 -49.333 89.667 -74 143 -74c61.333 0 110 23 146 69c33.333 42 50 94.333 50 157
c0 52 -19.667 100.333 -59 145c-41.333 46 -87.666 69 -138.999 69z" />
    <glyph glyph-name="acute" unicode="&#xb4;" horiz-adv-x="299" 
d="M123 526c-18 0 -29.667 1.00098 -35 3.00098c-11.333 4 -18.333 13 -21 27c-0.666992 6 -1 15 -1 27c0 18.667 13.5 42 40.5 70s49.833 42 68.5 42c33.333 0 52 -8.66699 56 -26c1.33301 -7.33301 2 -18 2 -32c0 -18.667 -13.667 -41.834 -41 -69.501
s-50.333 -41.5 -69 -41.5z" />
    <glyph glyph-name="paragraph" unicode="&#xb6;" horiz-adv-x="502" 
d="M356 42c44 -2.66699 66.002 -10.333 66.002 -23c0 -11.333 -29 -17 -87 -17c-56.667 0 -114.334 1.33301 -173.001 4l-9 15c0 9.33301 9.33301 15.333 28 18c23.333 3.33301 35.833 5.5 37.5 6.5s3.83398 94.5 6.50098 280.5c-44.667 0 -80.334 11.667 -107.001 35
c-28.667 24 -43 58 -43 102c0 40.667 10.667 73.834 32 99.501s52 38.5 92 38.5l141 1c58 0 87 -8 87 -24c0 -11.333 -12 -18 -36 -20c-16 0 -32 -0.333008 -48 -1h-9v-30c-0.666992 -66 1.66602 -147 6.99902 -243c4.66699 -80.667 9.66699 -161.334 15 -242.001z
M235.002 559.001c-39.333 -6 -63.333 -13 -72 -21c-10 -10 -15 -34.333 -15 -73c0 -37.333 4.33301 -62 13 -74c10 -14.667 33 -23 69 -25zM279.002 41.001h11l21 516l-51 2z" />
    <glyph glyph-name="florin" unicode="&#x192;" horiz-adv-x="498" 
d="M322 358l-49.002 -276.999c-14 -80.667 -32.667 -134.334 -56 -161.001c-30 -35.333 -82.667 -53 -158 -53c-24.667 0 -42 3.33301 -52 10c-13.333 8.66699 -20 25 -20 49c0 30 26.333 45 79 45c6 0 14.5 -2.16699 25.5 -6.5s19.5 -6.5 25.5 -6.5
c28 0 45.333 22.333 52 67c2 32 3.66699 64.333 5 97l13 236c-58 1.33301 -87 24 -87 68c0 22 12 35 36 39c20 2 40 3.66699 60 5c6 82.667 18 144 36 184c28.667 64 76.334 96 143.001 96c30.667 0 59.334 -6.66699 86.001 -20c33.333 -16.667 50 -38.667 50 -66
c0 -34 -25 -51 -75 -51c-8 0 -18.5 2.5 -31.5 7.5s-21.167 7.5 -24.5 7.5c-6 0 -12.667 -19 -20 -57l-18 -96c31.333 0 53.333 -2.33301 66 -7c22 -8 33 -24.667 33 -50c0 -40 -39.667 -60 -119 -60z" />
    <glyph glyph-name="endash" unicode="&#x2013;" horiz-adv-x="564" 
d="M423 331c22 0 42.333 -5.33301 61 -16c22 -13.333 33 -30 33 -50c0 -20.667 -11 -37.334 -33 -50.001c-18.667 -11.333 -39 -17 -61 -17h-276c-24 0 -45.667 5 -65 15c-23.333 12.667 -35 29.667 -35 51c0 20.667 11 37.334 33 50.001c18.667 11.333 39 17 61 17h282z
" />
    <glyph glyph-name="emdash" unicode="&#x2014;" horiz-adv-x="1133" 
d="M993 331c21.333 0 41.332 -5.33301 59.999 -16c22.667 -13.333 34 -30 34 -50c0 -20.667 -11 -37.334 -33 -50.001c-19.333 -11.333 -39.666 -17 -60.999 -17h-846c-24 0 -45.667 5 -65 15c-23.333 12.667 -35 29.667 -35 51c0 20.667 10.667 37.334 32 50.001
c19.333 11.333 40 17 62 17h852z" />
    <glyph glyph-name="quoteleft" unicode="&#x2018;" horiz-adv-x="277" 
d="M163 598c20 -12.667 33.001 -22.334 39.001 -29.001c10 -12 15 -27.333 15 -46c0 -21.333 -7.83301 -39.833 -23.5 -55.5s-34.167 -23.5 -55.5 -23.5c-20.667 0 -38.834 7.66699 -54.501 23s-23.5 33.333 -23.5 54c0 20 8.66699 52.333 26 97c20 48.667 37.667 73 53 73
c9.33301 0 18 -5.16699 26 -15.5s12 -20.166 12 -29.499c0 -4.66699 -4.66699 -20.667 -14 -48z" />
    <glyph glyph-name="quoteright" unicode="&#x2019;" horiz-adv-x="277" 
d="M114 526c-20 12.667 -33.002 22.334 -39.002 29.001c-10 12 -15 27.333 -15 46c0 21.333 7.83301 39.833 23.5 55.5s34.167 23.5 55.5 23.5c20.667 0 38.834 -7.66699 54.501 -23s23.5 -33.333 23.5 -54c0 -20 -9 -52 -27 -96c-19.333 -49.333 -36.666 -74 -51.999 -74
c-9.33301 0 -18 5.16699 -26 15.5s-12 20.166 -12 29.499c0 2.66699 4.66699 18.667 14 48z" />
    <glyph glyph-name="quotedblleft" unicode="&#x201c;" horiz-adv-x="474" 
d="M359 598c36.667 -18 55.001 -43.001 55.001 -75.001c0 -21.333 -7.83301 -39.833 -23.5 -55.5s-34.167 -23.5 -55.5 -23.5c-20.667 0 -38.834 7.66699 -54.501 23s-23.5 33.333 -23.5 54s8.66699 53 26 97c19.333 48.667 37 73 53 73c9.33301 0 18 -5.16699 26 -15.5
s12 -20.166 12 -29.499c0 -7.33301 -5 -23.333 -15 -48zM163.001 597.999c20 -12.667 33.001 -22.334 39.001 -29.001c10 -12 15 -27.333 15 -46c0 -21.333 -7.83301 -39.833 -23.5 -55.5s-34.167 -23.5 -55.5 -23.5c-20.667 0 -38.834 7.66699 -54.501 23
s-23.5 33.333 -23.5 54c0 20 8.66699 52.333 26 97c20 48.667 37.667 73 53 73c9.33301 0 18 -5.16699 26 -15.5s12 -20.166 12 -29.499c0 -4.66699 -4.66699 -20.667 -14 -48z" />
    <glyph glyph-name="quotedblright" unicode="&#x201d;" horiz-adv-x="474" 
d="M114 526c-20 12.667 -33.002 22.334 -39.002 29.001c-10 12 -15 27.333 -15 46c0 21.333 7.83301 39.833 23.5 55.5s34.167 23.5 55.5 23.5c20.667 0 38.834 -7.66699 54.501 -23s23.5 -33.333 23.5 -54c0 -20 -9 -52 -27 -96c-19.333 -49.333 -36.666 -74 -51.999 -74
c-9.33301 0 -18 5.16699 -26 15.5s-12 20.166 -12 29.499c0 2.66699 4.66699 18.667 14 48zM310.998 526c-20.667 13.333 -33.666 23.002 -38.999 29.002c-10 11.333 -15 26.666 -15 45.999c0 21.333 7.66699 39.833 23 55.5s33.666 23.5 54.999 23.5
c20.667 0 39 -7.66699 55 -23s24 -33.333 24 -54s-9 -53 -27 -97c-19.333 -48.667 -37 -73 -53 -73c-9.33301 0 -17.833 5.16699 -25.5 15.5s-11.5 20.166 -11.5 29.499c0 8.66699 4.66699 24.667 14 48z" />
    <glyph glyph-name="bullet" unicode="&#x2022;" horiz-adv-x="453" 
d="M227 160c-31.333 0 -68.166 21 -110.499 63s-63.5 78.667 -63.5 110c0 47.333 17.167 88.166 51.5 122.499s75.166 51.5 122.499 51.5s88 -17.167 122 -51.5s51 -75.166 51 -122.499c0 -30.667 -21.167 -67.167 -63.5 -109.5s-78.833 -63.5 -109.5 -63.5z" />
    <glyph glyph-name="fraction" unicode="&#x2044;" horiz-adv-x="348" 
d="M317 674c26 0 39 -12.332 39 -36.999c0 -12.667 -5.33301 -30.334 -16 -53.001l-247 -531c-19.333 -41.333 -39 -62 -59 -62c-10.667 0 -20.334 3.66699 -29.001 11s-13 16.333 -13 27c0 12 6.33301 31 19 57l244 526c18.667 41.333 39.334 62 62.001 62z" />
    <glyph glyph-name="trademark" unicode="&#x2122;" horiz-adv-x="653" 
d="M191 462l-14.999 -238c-0.666992 -16.667 -7 -25 -19 -25c-13.333 0 -21 8.33301 -23 25l-20 238c-12 2 -30 6.66699 -54 14c-27.333 8.66699 -43 15.667 -47 21c0 23.333 13 35 39 35h201c26 0 39 -11.667 39 -35c-28.667 -21.333 -62.334 -33 -101.001 -35z
M445.001 362l32.002 148.999c3.33301 14 21.666 21 54.999 21c20.667 0 33.334 -7.33301 38.001 -22c46.667 -157.333 70 -253.666 70 -288.999c0 -14.667 -7.33301 -22 -22 -22c-18.667 0 -32.667 13 -42 39l-63 168l-33 -174c-4 -21.333 -15.667 -32 -35 -32
c-18.667 0 -30.334 10.667 -35.001 32l-32 175l-36 -114c-22.667 -62 -44.667 -93 -66 -93c-14.667 0 -22 8.33301 -22 25c0 31.333 21.667 125.333 65 282c3.33301 12 9.66602 19.667 18.999 23c5.33301 2 15.333 3 30 3c24 0 38 -8.33301 42 -25z" />
    <glyph glyph-name=".null" horiz-adv-x="0" 
 />
    <glyph glyph-name="nonmarkingreturn" horiz-adv-x="334" 
 />
  </font>
</defs>
</svg>
